<?xml version="1.0" encoding="utf-8"?>
<!-- Generator: Adobe Illustrator 26.0.2, SVG Export Plug-In . SVG Version: 6.00 Build 0)  -->
<svg version="1.1" id="Layer_1" focusable="false" xmlns="http://www.w3.org/2000/svg" xmlns:xlink="http://www.w3.org/1999/xlink"
	 x="0px" y="0px" viewBox="0 0 57.6 57.6" style="enable-background:new 0 0 57.6 57.6;" xml:space="preserve">
<path d="M56.8,49.8L45.6,38.6c-0.5-0.5-1.2-0.8-1.9-0.8h-1.8c3.1-4,4.9-9,4.9-14.4C46.8,10.5,36.3,0,23.4,0S0,10.5,0,23.4
	s10.5,23.4,23.4,23.4c5.4,0,10.4-1.8,14.4-4.9v1.8c0,0.7,0.3,1.4,0.8,1.9l11.2,11.2c1.1,1.1,2.8,1.1,3.8,0l3.2-3.2
	C57.8,52.5,57.8,50.8,56.8,49.8z M23.4,37.8C15.4,37.8,9,31.3,9,23.4C9,15.4,15.4,9,23.4,9c7.9,0,14.4,6.4,14.4,14.4
	C37.8,31.3,31.3,37.8,23.4,37.8z"/>
</svg>
